<svg width="1600" height="1040" viewBox="0 0 1600 1040" fill="none" xmlns="http://www.w3.org/2000/svg">
  <rect width="1600" height="1040" rx="48" fill="#F8FAFD"/>
  <rect x="42" y="42" width="1516" height="956" rx="40" fill="url(#bg2)"/>
  <circle cx="1284" cy="214" r="144" fill="#E3EEF9"/>
  <circle cx="298" cy="794" r="168" fill="#FDE2D6"/>
  <circle cx="1324" cy="786" r="152" fill="#E4F3EE"/>

  <rect x="176" y="164" width="1248" height="712" rx="42" fill="white" fill-opacity="0.95"/>
  <rect x="228" y="220" width="470" height="600" rx="30" fill="#F6FBF9"/>
  <rect x="734" y="220" width="642" height="280" rx="30" fill="#FFF9F7"/>
  <rect x="734" y="532" width="306" height="288" rx="30" fill="#F8FAFE"/>
  <rect x="1070" y="532" width="306" height="288" rx="30" fill="#F9FCFB"/>

  <rect x="278" y="286" width="370" height="468" rx="28" fill="white"/>
  <rect x="320" y="330" width="286" height="52" rx="20" fill="#F6F9FD"/>
  <rect x="344" y="346" width="90" height="20" rx="10" fill="#E66A6F"/>
  <rect x="444" y="346" width="138" height="20" rx="10" fill="#E5EDF7"/>

  <rect x="320" y="418" width="132" height="132" rx="24" fill="#FFF4EE"/>
  <path d="M386 448L406 458V486C406 520 386 536 386 536C386 536 366 520 366 486V458L386 448Z" fill="#E66A6F"/>
  <path d="M374 490L384 500L400 478" stroke="white" stroke-width="10" stroke-linecap="round" stroke-linejoin="round"/>

  <rect x="474" y="418" width="132" height="132" rx="24" fill="#F4FAF7"/>
  <rect x="504" y="518" width="18" height="18" rx="9" fill="#78B7A5"/>
  <rect x="532" y="494" width="18" height="42" rx="9" fill="#5D88C6"/>
  <rect x="560" y="468" width="18" height="68" rx="9" fill="#F4B168"/>

  <rect x="320" y="582" width="286" height="130" rx="24" fill="#F8FAFE"/>
  <path d="M350 664L396 624L440 648L498 596L576 618" stroke="#5D88C6" stroke-width="12" stroke-linecap="round" stroke-linejoin="round"/>
  <circle cx="350" cy="664" r="8" fill="#78B7A5"/>
  <circle cx="396" cy="624" r="8" fill="#E66A6F"/>
  <circle cx="440" cy="648" r="8" fill="#F4B168"/>
  <circle cx="498" cy="596" r="8" fill="#5D88C6"/>
  <circle cx="576" cy="618" r="8" fill="#78B7A5"/>

  <rect x="792" y="276" width="526" height="168" rx="26" fill="white"/>
  <rect x="836" y="322" width="216" height="18" rx="9" fill="#E7EEF8"/>
  <rect x="836" y="362" width="296" height="18" rx="9" fill="#F6DADC"/>
  <rect x="836" y="402" width="250" height="18" rx="9" fill="#DCEFE8"/>
  <rect x="1160" y="312" width="110" height="96" rx="22" fill="#F8FBFA"/>
  <path d="M1200 336L1234 358L1234 394L1200 414L1166 394V358L1200 336Z" fill="#5D88C6"/>
  <path d="M1188 376L1198 386L1218 364" stroke="white" stroke-width="10" stroke-linecap="round" stroke-linejoin="round"/>

  <rect x="780" y="576" width="214" height="200" rx="26" fill="white"/>
  <rect x="1114" y="576" width="214" height="200" rx="26" fill="white"/>
  <rect x="1034" y="592" width="48" height="192" rx="24" fill="#FFFDFC"/>

  <circle cx="1058" cy="648" r="32" fill="#FFF2EB"/>
  <path d="M1058 624L1072 630V650C1072 674 1058 686 1058 686C1058 686 1044 674 1044 650V630L1058 624Z" fill="#E66A6F"/>
  <path d="M1050 650L1057 657L1068 642" stroke="white" stroke-width="7" stroke-linecap="round" stroke-linejoin="round"/>
  <path d="M1038 716H1078" stroke="#E7EEF8" stroke-width="10" stroke-linecap="round"/>
  <path d="M1038 744H1070" stroke="#DCEFE8" stroke-width="10" stroke-linecap="round"/>

  <rect x="826" y="624" width="122" height="104" rx="24" fill="#FFF6F0"/>
  <rect x="844" y="646" width="24" height="24" rx="8" fill="#E66A6F"/>
  <rect x="876" y="646" width="24" height="24" rx="8" fill="#78B7A5"/>
  <rect x="908" y="646" width="24" height="24" rx="8" fill="#5D88C6"/>
  <rect x="844" y="678" width="24" height="24" rx="8" fill="#F4B168"/>
  <rect x="876" y="678" width="56" height="24" rx="8" fill="#EAF2FB"/>

  <rect x="1148" y="618" width="146" height="116" rx="24" fill="#F5FBF8"/>
  <circle cx="1196" cy="660" r="24" fill="#78B7A5"/>
  <path d="M1184 660H1208" stroke="white" stroke-width="10" stroke-linecap="round"/>
  <path d="M1196 648V672" stroke="white" stroke-width="10" stroke-linecap="round"/>
  <rect x="1158" y="706" width="126" height="10" rx="5" fill="#E1EDE8"/>
  <rect x="1144" y="270" width="172" height="24" rx="12" fill="#FFFFFF" fill-opacity="0.7"/>
  <circle cx="1170" cy="282" r="7" fill="#78B7A5"/>
  <circle cx="1192" cy="282" r="7" fill="#E66A6F"/>
  <rect x="1210" y="274" width="76" height="16" rx="8" fill="#E7EEF8"/>

  <path d="M1018 688C1060 632 1104 608 1146 606" stroke="#E66A6F" stroke-width="14" stroke-linecap="round"/>
  <circle cx="1018" cy="688" r="10" fill="#E66A6F"/>
  <circle cx="1146" cy="606" r="10" fill="#F4B168"/>

  <circle cx="666" cy="248" r="28" fill="#E6F2F8"/>
  <path d="M650 248H682" stroke="#5D88C6" stroke-width="10" stroke-linecap="round"/>
  <path d="M666 232V264" stroke="#5D88C6" stroke-width="10" stroke-linecap="round"/>

  <defs>
    <linearGradient id="bg2" x1="126" y1="80" x2="1458" y2="918" gradientUnits="userSpaceOnUse">
      <stop stop-color="#FFF9F7"/>
      <stop offset="0.52" stop-color="#FCFEFD"/>
      <stop offset="1" stop-color="#F4F8FD"/>
    </linearGradient>
  </defs>
</svg>
