<svg width="960" height="720" viewBox="0 0 960 720" fill="none" xmlns="http://www.w3.org/2000/svg">
  <rect width="960" height="720" rx="36" fill="#F7FAFC"/>
  <rect x="64" y="68" width="832" height="584" rx="28" fill="white" stroke="#DCE6F1" stroke-width="2"/>
  <rect x="64" y="68" width="832" height="86" rx="28" fill="#102A4C"/>
  <circle cx="114" cy="111" r="12" fill="#C79A3B"/>
  <circle cx="154" cy="111" r="12" fill="#2F9D7E"/>
  <circle cx="194" cy="111" r="12" fill="#DCE6F1"/>
  <rect x="112" y="206" width="230" height="126" rx="18" fill="#F4F7FB" stroke="#DCE6F1"/>
  <rect x="392" y="206" width="456" height="126" rx="18" fill="#F4F7FB" stroke="#DCE6F1"/>
  <rect x="112" y="386" width="292" height="198" rx="18" fill="#F4F7FB" stroke="#DCE6F1"/>
  <rect x="454" y="386" width="394" height="198" rx="18" fill="#F4F7FB" stroke="#DCE6F1"/>
  <path d="M138 286C168 246 201 279 232 252C263 225 286 248 316 222" stroke="#2F9D7E" stroke-width="10" stroke-linecap="round"/>
  <path d="M420 284H806" stroke="#DCE6F1" stroke-width="14" stroke-linecap="round"/>
  <path d="M420 248H696" stroke="#C79A3B" stroke-width="14" stroke-linecap="round"/>
  <rect x="138" y="432" width="42" height="106" rx="8" fill="#1B4D7A"/>
  <rect x="202" y="472" width="42" height="66" rx="8" fill="#2F9D7E"/>
  <rect x="266" y="406" width="42" height="132" rx="8" fill="#C79A3B"/>
  <rect x="330" y="452" width="42" height="86" rx="8" fill="#8AA8C4"/>
  <circle cx="544" cy="486" r="58" fill="#102A4C"/>
  <path d="M544 428A58 58 0 1 1 492.4 512.5" stroke="#C79A3B" stroke-width="28"/>
  <path d="M644 438H788" stroke="#DCE6F1" stroke-width="12" stroke-linecap="round"/>
  <path d="M644 482H820" stroke="#2F9D7E" stroke-width="12" stroke-linecap="round"/>
  <path d="M644 526H760" stroke="#DCE6F1" stroke-width="12" stroke-linecap="round"/>
</svg>
