<svg width="240" height="240" viewBox="0 0 240 240" fill="none" xmlns="http://www.w3.org/2000/svg">
  <rect width="240" height="240" rx="20" fill="#F4F7FB"/>
  <rect x="34" y="34" width="56" height="56" rx="8" fill="#102A4C"/>
  <rect x="50" y="50" width="24" height="24" rx="4" fill="white"/>
  <rect x="150" y="34" width="56" height="56" rx="8" fill="#102A4C"/>
  <rect x="166" y="50" width="24" height="24" rx="4" fill="white"/>
  <rect x="34" y="150" width="56" height="56" rx="8" fill="#102A4C"/>
  <rect x="50" y="166" width="24" height="24" rx="4" fill="white"/>
  <rect x="112" y="112" width="18" height="18" rx="3" fill="#2F9D7E"/>
  <rect x="144" y="112" width="18" height="18" rx="3" fill="#102A4C"/>
  <rect x="176" y="112" width="18" height="18" rx="3" fill="#C79A3B"/>
  <rect x="112" y="144" width="18" height="18" rx="3" fill="#102A4C"/>
  <rect x="144" y="176" width="18" height="18" rx="3" fill="#2F9D7E"/>
  <rect x="176" y="176" width="18" height="18" rx="3" fill="#102A4C"/>
  <rect x="112" y="198" width="82" height="10" rx="5" fill="#DCE6F1"/>
</svg>
